<?xml version="1.0" encoding="UTF-8" standalone="no"?>
<svg
   xmlns:dc="http://purl.org/dc/elements/1.1/"
   xmlns:cc="http://creativecommons.org/ns#"
   xmlns:rdf="http://www.w3.org/1999/02/22-rdf-syntax-ns#"
   xmlns:svg="http://www.w3.org/2000/svg"
   xmlns="http://www.w3.org/2000/svg"
   xmlns:xlink="http://www.w3.org/1999/xlink"
   xmlns:sodipodi="http://sodipodi.sourceforge.net/DTD/sodipodi-0.dtd"
   xmlns:inkscape="http://www.inkscape.org/namespaces/inkscape"
   version="1.1"
   width="355.33072"
   height="178.16536"
   viewBox="-25 -25 100.28222 50.282222"
   id="svg3068"
   inkscape:version="0.48.5 r10040"
   sodipodi:docname="dp5050.svg">
  <sodipodi:namedview
     pagecolor="#ffffff"
     bordercolor="#666666"
     borderopacity="1"
     objecttolerance="10"
     gridtolerance="10"
     guidetolerance="10"
     inkscape:pageopacity="0"
     inkscape:pageshadow="2"
     inkscape:window-width="1920"
     inkscape:window-height="980"
     id="namedview3111"
     showgrid="false"
     inkscape:zoom="2.0884444"
     inkscape:cx="207.49444"
     inkscape:cy="58.573319"
     inkscape:window-x="0"
     inkscape:window-y="28"
     inkscape:window-maximized="1"
     inkscape:current-layer="layer-keepout"
     fit-margin-top="0"
     fit-margin-left="0"
     fit-margin-right="0"
     fit-margin-bottom="0" />
  <metadata
     id="metadata3070">
    <rdf:RDF>
      <cc:Work
         rdf:about="">
        <dc:format>image/svg+xml</dc:format>
        <dc:type
           rdf:resource="http://purl.org/dc/dcmitype/StillImage" />
        <dc:title></dc:title>
      </cc:Work>
    </rdf:RDF>
  </metadata>
  <defs
     id="defs3072">
    <g
       id="center-mark">
      <path
         d="M 0,-1 V 1 z"
         style="stroke:#ffffff;stroke-width:0.25"
         id="path3075"
         inkscape:connector-curvature="0" />
      <path
         d="M -1,0 H 1 z"
         style="stroke:#ffffff;stroke-width:0.25"
         id="path3077"
         inkscape:connector-curvature="0" />
    </g>
    <g
       id="corner-keepout-once" />
    <g
       id="hole-once">
      <circle
         cx="0"
         cy="0"
         r="1.6"
         style="fill:#000000;stroke:none"
         id="circle3082"
         sodipodi:cx="0"
         sodipodi:cy="0"
         sodipodi:rx="1.6"
         sodipodi:ry="1.6" />
    </g>
  </defs>
  <g
     inkscape:label="Main"
     id="layer-keepout"
     inkscape:groupmode="layer"
     style="display:inline"
     transform="translate(50.14111,0.14111111)">
    <path
       style="font-size:medium;font-style:normal;font-variant:normal;font-weight:normal;font-stretch:normal;text-indent:0;text-align:start;text-decoration:none;line-height:normal;letter-spacing:normal;word-spacing:normal;text-transform:none;direction:ltr;block-progression:tb;writing-mode:lr-tb;text-anchor:start;baseline-shift:baseline;color:#000000;fill:none;stroke:#000000;stroke-width:0.28222221;stroke-miterlimit:4;stroke-opacity:1;stroke-dasharray:none;marker:none;visibility:visible;display:inline;overflow:visible;enable-background:accumulate;font-family:Sans;-inkscape-font-specification:Sans"
       d="m -70.999999,-25 c -2.164923,0 -4,1.835077 -4,4 l 0,42 c 0,2.164923 1.835077,4 4,4 L 21,25 c 2.164923,0 4,-1.835077 4,-4 l 0,-42 c 0,-2.164923 -1.835077,-4 -4,-4 z"
       id="edge-keepout"
       inkscape:connector-curvature="0"
       sodipodi:nodetypes="sssssssss" />
    <use
       transform="translate(-21,21)"
       id="lower-left-corner-keepout"
       x="0"
       y="0"
       xlink:href="#corner-keepout-once"
       width="50"
       height="50" />
    <use
       transform="matrix(-1,0,0,1,21,21)"
       id="lower-right-corner-keepout"
       x="0"
       y="0"
       xlink:href="#corner-keepout-once"
       width="50"
       height="50" />
    <use
       transform="matrix(-1,0,0,-1,21,-21)"
       id="upper-right-corner-keepout"
       x="0"
       y="0"
       xlink:href="#corner-keepout-once"
       width="50"
       height="50" />
    <use
       transform="matrix(1,0,0,-1,-21,-21)"
       id="upper-left-corner-keepout"
       x="0"
       y="0"
       xlink:href="#corner-keepout-once"
       width="50"
       height="50" />
    <path
       transform="matrix(-1,0,0,1,21,21)"
       style="fill:#000000;stroke:none;display:inline"
       d="M 1.6,0 C 1.6,0.88365561 0.88365561,1.6 0,1.6 -0.88365561,1.6 -1.6,0.88365561 -1.6,0 c 0,-0.88365561 0.71634439,-1.6 1.6,-1.6 0.88365561,0 1.6,0.71634439 1.6,1.6 z"
       id="circle4011"
       inkscape:connector-curvature="0" />
    <path
       transform="matrix(-1,0,0,-1,21,-21)"
       style="fill:#000000;stroke:none;display:inline"
       d="M 1.6,0 C 1.6,0.88365561 0.88365561,1.6 0,1.6 -0.88365561,1.6 -1.6,0.88365561 -1.6,0 c 0,-0.88365561 0.71634439,-1.6 1.6,-1.6 0.88365561,0 1.6,0.71634439 1.6,1.6 z"
       id="circle4007"
       inkscape:connector-curvature="0" />
    <path
       style="fill:#000000;stroke:none;display:inline"
       d="m -19.4,21 c 0,0.883656 -0.716344,1.6 -1.6,1.6 -0.883656,0 -1.6,-0.716344 -1.6,-1.6 0,-0.883656 0.716344,-1.6 1.6,-1.6 0.883656,0 1.6,0.716344 1.6,1.6 z"
       id="circle4015"
       inkscape:connector-curvature="0" />
    <path
       style="fill:#000000;stroke:none;display:inline"
       d="m -19.4,-21 c 0,-0.883656 -0.716344,-1.6 -1.6,-1.6 -0.883656,0 -1.6,0.716344 -1.6,1.6 0,0.883656 0.716344,1.6 1.6,1.6 0.883656,0 1.6,-0.716344 1.6,-1.6 z"
       id="circle4003"
       inkscape:connector-curvature="0" />
    <path
       style="fill:#000000;stroke:none;display:inline"
       d="m -69.399999,21 c 0,0.883658 -0.716344,1.6 -1.6,1.6 -0.883656,0 -1.6,-0.716342 -1.6,-1.6 0,-0.883655 0.716344,-1.6 1.6,-1.6 0.883656,0 1.6,0.716345 1.6,1.6 z"
       id="circle4015-6"
       inkscape:connector-curvature="0" />
    <path
       style="fill:#000000;stroke:none;display:inline"
       d="m -69.399999,-20.999999 c 0,-0.883656 -0.716344,-1.6 -1.6,-1.6 -0.883656,0 -1.6,0.716344 -1.6,1.6 0,0.883656 0.716344,1.6 1.6,1.6 0.883656,0 1.6,-0.716344 1.6,-1.6 z"
       id="circle4003-7"
       inkscape:connector-curvature="0" />
  </g>
</svg>
